<svg width="218" height="64" viewBox="0 0 218 64" fill="none" xmlns="http://www.w3.org/2000/svg">
<path d="M29.9812 41.7557H28.9105V51.3917H29.9812V41.7557Z" fill="white"/>
<path d="M40.3856 48.1051L34.2639 41.7557L34.2712 42.3136V51.2354H35.6405V45.117L41.7586 51.3917V50.8516V41.8801H40.3856V48.1051Z" fill="white"/>
<path d="M118.544 48.1051L112.422 41.7557L112.43 42.3136V51.2354H113.799V45.117L119.917 51.3917V50.8516V41.8801H118.544V48.1051Z" fill="white"/>
<path d="M44.9705 43.0991H47.9779V51.3917H49.4697V43.0991H52.4652V41.7557H44.9705V43.0991Z" fill="white"/>
<path d="M55.6771 51.3917H62.1011V50.0484H57.1437V47.369H61.4848V46.0257H57.1437V43.0991H62.1011V41.7557H55.6771V51.3917Z" fill="white"/>
<path d="M66.7834 41.7557H65.313V51.3917H71.737V50.0416H66.7834V41.7557Z" fill="white"/>
<path d="M76.4156 41.7557H74.949V51.3917H81.373V50.0416H76.4156V41.7557Z" fill="white"/>
<path d="M85.6556 41.7557H84.585V51.3917H85.6556V41.7557Z" fill="white"/>
<path d="M94.2719 47.6294H97.0243C96.9643 47.9137 96.8707 48.1892 96.7456 48.4496C96.5915 48.7781 96.3818 49.0752 96.1263 49.3268C95.883 49.5665 95.5966 49.7543 95.2834 49.8796C94.7473 50.0886 94.1636 50.129 93.6055 49.9958C93.0474 49.8626 92.5395 49.5617 92.1456 49.1307C91.858 48.8117 91.6336 48.4374 91.4851 48.0288C91.1546 47.0854 91.1546 46.0516 91.4851 45.1083C91.6336 44.6997 91.858 44.3253 92.1456 44.0064C92.4179 43.7092 92.7457 43.4726 93.109 43.311C93.4726 43.1473 93.8651 43.0635 94.2616 43.0649C94.7366 43.0598 95.2067 43.1645 95.6377 43.3716C96.0189 43.5541 96.3492 43.8338 96.5977 44.1847L96.7284 44.3737L97.967 43.9671L97.7605 43.6105C97.4078 43.0353 96.9138 42.5676 96.3293 42.2554C95.6908 41.917 94.9821 41.7456 94.265 41.7562C93.6959 41.7589 93.1331 41.8802 92.6101 42.1128C92.0927 42.3409 91.6247 42.6744 91.2339 43.0935C90.8275 43.5316 90.5073 44.0475 90.2912 44.6126C89.8207 45.8747 89.8207 47.2731 90.2912 48.5352C90.509 49.0993 90.829 49.615 91.2339 50.0543C91.6247 50.4734 92.0927 50.8068 92.6101 51.035C93.1331 51.2676 93.6959 51.3889 94.265 51.3916C94.8254 51.3965 95.3811 51.2849 95.8992 51.0635C96.3968 50.8463 96.8454 50.5245 97.2169 50.1185C97.6003 49.6965 97.9026 49.2027 98.108 48.6636C98.3353 48.0717 98.4588 47.4425 98.4727 46.8057L98.5037 46.3528H94.2788L94.2719 47.6294Z" fill="white"/>
<path d="M102.786 51.3917H108.14V50.0484H104.011V47.369H107.623V46.0257H104.011V43.0991H108.14V41.7557H102.786V51.3917Z" fill="white"/>
<path d="M125.471 44.009C125.758 43.7116 126.103 43.4747 126.485 43.3129C126.867 43.1494 127.279 43.0656 127.695 43.0666C128.217 43.0603 128.733 43.1752 129.202 43.4021C129.627 43.6018 129.987 43.9162 130.238 44.3089L130.365 44.5123L131.691 44.1268L131.488 43.7698C131.12 43.1466 130.585 42.6352 129.941 42.2919C129.247 41.9272 128.47 41.7429 127.684 41.7564C127.085 41.7592 126.493 41.8805 125.942 42.1134C125.397 42.3418 124.904 42.6756 124.493 43.0951C124.065 43.5337 123.728 44.0502 123.5 44.6159C123.005 45.8793 123.005 47.2792 123.5 48.5426C123.727 49.1079 124.063 49.6243 124.489 50.0634C124.905 50.4849 125.402 50.8196 125.952 51.0478C126.501 51.2759 127.092 51.3928 127.688 51.3914C128.463 51.4009 129.228 51.2219 129.916 50.8702C130.575 50.5312 131.121 50.0134 131.491 49.378L131.694 49.021L130.372 48.6355L130.242 48.8354C129.982 49.2316 129.616 49.5492 129.184 49.7528C128.767 49.9551 128.31 50.0671 127.845 50.0813C127.381 50.0955 126.918 50.0115 126.489 49.8349C126.106 49.674 125.761 49.437 125.475 49.1388C125.172 48.8195 124.936 48.4447 124.779 48.0357C124.431 47.0913 124.431 46.0565 124.779 45.1121C124.936 44.7031 125.172 44.3283 125.475 44.009" fill="white"/>
<path d="M141.33 43.0991V41.7557H134.906V51.3917H141.33V50.0484H136.373V47.369H140.714V46.0257H136.373V43.0991H141.33Z" fill="white"/>
<path fill-rule="evenodd" clip-rule="evenodd" d="M65.4132 16.7113L72.3977 24.9253C76.2423 29.4413 79.4145 33.1353 79.4588 33.1353C79.503 33.1353 79.5232 28.5562 79.5232 22.9583V12.7853H77.8767V20.8812L77.8485 28.9771L70.872 20.7907C67.0356 16.2943 63.8552 12.6083 63.811 12.6083C63.7667 12.6083 63.7385 17.1834 63.7385 22.7813V32.9543H65.381L65.4011 24.8348L65.4132 16.7113ZM32.0565 33.1785C30.0733 32.7821 28.2402 31.8592 26.7587 30.5114L26.2273 30.0196L26.7667 29.4846L27.3062 28.9496L27.91 29.4925C28.7184 30.2516 29.6732 30.846 30.7189 31.241C31.7645 31.6361 32.8802 31.824 34.0009 31.7938C35.8446 31.7938 37.1449 31.3493 38.1554 30.3658C38.5989 29.9323 38.9305 29.4019 39.123 28.8185C39.3155 28.235 39.3633 27.6152 39.2624 27.0102C39.1848 26.5047 38.9885 26.0236 38.6889 25.6045C38.3893 25.1855 37.9945 24.8399 37.5354 24.5948C36.694 24.0755 35.8366 23.7805 33.3246 23.1747C32.0122 22.8521 30.6394 22.4784 30.2932 22.3368C28.6145 21.6562 27.6524 20.6019 27.3263 19.0756C27.1524 18.4243 27.1524 17.7403 27.3263 17.089C27.7007 15.543 28.8238 14.2684 30.5227 13.4541C31.4552 12.9753 32.4925 12.7242 33.546 12.7224C35.446 12.6247 37.3342 13.0689 38.9806 14.0009L39.6932 14.4179L39.1819 14.9883C39.0137 15.1861 38.8336 15.3739 38.6425 15.5508C38.4815 15.4707 38.3256 15.3814 38.1755 15.2833C36.8988 14.5631 35.4467 14.1934 33.9727 14.2133C32.1933 14.2133 31.042 14.6421 29.947 15.6846C29.0895 16.5146 28.8722 17.0418 28.9245 18.1511C28.9156 18.7323 29.0907 19.302 29.4257 19.7822C29.7608 20.2624 30.2396 20.6298 30.7964 20.834C31.7286 21.1462 32.6774 21.4088 33.6386 21.6208C36.2512 22.2384 36.8591 22.4076 37.7206 22.8442C39.5201 23.7215 40.5063 24.7718 40.8646 26.1998C41.0165 27.1129 41.0029 28.045 40.8244 28.9535C40.2608 31.0857 38.409 32.6474 35.8285 33.1667C34.5718 33.336 33.2971 33.336 32.0404 33.1667M0.108713 33.3988C0.433111 33.5061 0.772686 33.5632 1.11513 33.568C2.78161 33.652 4.4523 33.6046 6.11099 33.4264C8.47016 33.2114 10.7554 32.5081 12.8149 31.3631C14.8743 30.2182 16.6607 28.6579 18.0552 26.786C19.7299 24.4847 20.8168 21.4477 21.1549 18.1905C21.2999 16.7467 21.2354 13.0764 21.0623 12.9505C20.8892 12.8246 18.5503 12.746 17.1695 12.8089C11.5819 13.0685 7.04093 15.0591 4.02973 18.576C1.92833 21.0189 0.676332 23.9851 0.120789 27.8127C-0.0362122 28.8552 -0.0442635 33.2493 0.120789 33.3988M15.1205 28.1707C12.5601 30.5507 9.02558 31.9197 4.61344 32.2226C1.31642 32.4547 1.28019 32.435 1.36473 29.819C1.46537 26.7073 2.04104 24.3942 3.30913 21.9512C4.64605 19.3626 6.80578 17.2673 9.46439 15.9796C12.1453 14.7007 15.0963 14.0552 18.0793 14.0953C19.8506 14.0953 20.0237 14.2998 19.9231 16.2314C19.6654 21.6641 18.2162 25.2793 15.1205 28.155M10.0119 27.5098V28.8513L10.8613 28.7962C12.3089 28.7497 13.6803 28.1509 14.6817 27.1282C15.2234 26.6069 15.6544 25.9861 15.9501 25.3016C16.2457 24.6171 16.4002 23.8823 16.4046 23.1393V22.5256H15.0359V23.2298C15.0419 23.8898 14.8908 24.5422 14.5946 25.1355C14.2983 25.7288 13.8651 26.2466 13.329 26.6483C12.6242 27.1895 11.7576 27.4906 10.8613 27.5059L10.0119 27.5098ZM10.1326 26.306C9.61467 26.2283 9.12393 26.0282 8.70301 25.7232C8.28209 25.4181 7.94372 25.0173 7.71725 24.5555C7.4671 24.1318 7.36136 23.6413 7.41532 23.155C7.36972 22.7045 7.45481 22.2505 7.66088 21.845C8.00429 21.1606 8.57073 20.607 9.27115 20.2715C9.70205 20.0662 10.1832 19.9831 10.66 20.0315C11.1358 19.9752 11.6178 20.0631 12.0408 20.2833C12.6758 20.6215 13.2036 21.1236 13.5665 21.7349C13.8346 22.259 13.9503 22.8449 13.9011 23.4288C13.852 24.0128 13.6398 24.5723 13.2878 25.0466C12.9357 25.5208 12.4572 25.8916 11.9045 26.1185C11.3517 26.3455 10.7458 26.4198 10.1528 26.3336M5.49507 20.7278C5.10273 21.4567 4.88912 22.2647 4.87109 23.0881L4.81071 23.8749H6.19554V23.3124C6.18427 22.7291 6.29238 22.1496 6.51351 21.6078C6.73464 21.0659 7.06433 20.5728 7.48323 20.1572C7.90213 19.7416 8.40178 19.412 8.95285 19.1878C9.50391 18.9635 10.0953 18.8491 10.6922 18.8513H11.3122V17.5099H10.8371C9.89375 17.5291 8.96563 17.7465 8.11578 18.1472C6.98215 18.7094 6.06341 19.6127 5.49507 20.7239M50.8604 29.9606V26.9827L54.8861 19.9764L58.9117 12.9584H59.8054C60.1015 12.9422 60.3985 12.958 60.6911 13.0056C60.6911 13.0056 58.8634 16.2314 56.597 20.1299L52.4867 27.2108V32.9464H50.8443L50.8604 29.9606ZM85.614 12.6279C85.5496 12.6555 83.577 31.9354 83.5569 32.7576C83.5569 32.9425 83.5851 32.9504 84.362 32.9504C85.139 32.9504 85.1672 32.9504 85.1672 32.7576C85.1672 32.5648 86.5923 17.6554 86.6567 17.1991C86.6567 17.0929 87.9811 19.1464 90.0543 22.5256C91.9182 25.5625 93.4802 28.033 93.5446 28.033C93.609 28.033 95.1549 25.5586 97.0349 22.5256C100.183 17.3919 100.412 17.0457 100.457 17.3211C100.485 17.4902 100.823 20.8852 101.197 24.8544C101.572 28.8237 101.938 32.2973 101.938 32.5373L101.99 32.9543H103.629L103.573 32.5806C103.544 32.3681 103.089 27.8048 102.566 22.4351C102.043 17.0654 101.592 12.6437 101.564 12.624C101.536 12.6043 101.483 12.624 101.435 12.6594C101.387 12.6948 99.6475 15.5508 97.5461 18.989C95.4447 22.4272 93.6815 25.2832 93.6251 25.3422C93.5687 25.4013 92.6227 23.9969 89.5994 19.048C87.4336 15.5076 85.6341 12.6398 85.5738 12.6476M106.544 32.553C108.359 28.3202 115.275 12.683 115.336 12.6752C115.396 12.6673 117.421 17.2267 119.868 22.797L124.297 32.9268L123.492 32.9543C123.192 32.9761 122.89 32.9616 122.594 32.911C122.558 32.8717 120.923 29.107 118.971 24.5358C117.018 19.9646 115.384 16.2471 115.348 16.255C115.311 16.2629 113.661 20.0197 111.696 24.5987L108.138 32.911L107.26 32.9386L106.382 32.9661L106.544 32.553ZM130.351 27.7773C128.407 30.59 126.809 32.8914 126.809 32.9268C127.121 32.9716 127.436 32.9861 127.751 32.97H128.701L131.74 28.5523C133.411 26.1251 134.82 24.1345 134.856 24.1345C134.892 24.1345 136.297 26.1251 137.972 28.5523L141.003 32.97H143L139.437 27.8324L135.879 22.6987L137.203 20.7632L138.556 18.7963C139.204 17.8521 139.92 16.8057 140.524 15.9324L142.537 13.0017H140.637L137.284 17.8049L135.879 19.8309L135.758 20.004L135.697 20.0905V20.1102C133.958 22.62 131.853 25.653 130.388 27.7576M46.0859 19.0244C44.2019 15.7751 42.6601 13.0882 42.64 13.0449C42.9209 12.9594 43.2169 12.9313 43.5095 12.9623H44.4032L47.4386 18.1983L50.4618 23.4382L50.0593 24.1542C49.9275 24.4178 49.7654 24.6659 49.5762 24.8938C49.5279 24.8938 47.9659 22.262 46.0779 19.0126M126.994 13.2102C127.082 13.3439 128.343 15.1771 129.812 17.2621C131.281 19.347 132.481 21.0465 132.517 21.0307C132.553 21.015 132.763 20.716 133.008 20.3698L133.455 19.7247L132.131 17.8443C131.668 17.1676 131.056 16.2707 130.52 15.5312L129.784 14.4651L128.741 12.9623H126.817L126.994 13.2102Z" fill="white"/>
<path d="M158.544 41V26.696H153.84V24.2H165.984V26.696H161.136V41H158.544ZM168.556 41V23.24H171.028V30.992L170.596 31.28C170.756 30.72 171.068 30.208 171.532 29.744C171.996 29.264 172.548 28.88 173.188 28.592C173.828 28.288 174.484 28.136 175.156 28.136C176.116 28.136 176.916 28.328 177.556 28.712C178.196 29.08 178.676 29.648 178.996 30.416C179.316 31.184 179.476 32.152 179.476 33.32V41H177.004V33.488C177.004 32.768 176.908 32.176 176.716 31.712C176.524 31.232 176.228 30.888 175.828 30.68C175.428 30.456 174.932 30.36 174.34 30.392C173.86 30.392 173.42 30.472 173.02 30.632C172.62 30.776 172.268 30.984 171.964 31.256C171.676 31.528 171.444 31.848 171.268 32.216C171.108 32.568 171.028 32.952 171.028 33.368V41H169.804C169.596 41 169.388 41 169.18 41C168.972 41 168.764 41 168.556 41ZM188.71 41.24C187.414 41.24 186.262 40.968 185.254 40.424C184.262 39.864 183.478 39.104 182.902 38.144C182.342 37.184 182.062 36.08 182.062 34.832C182.062 33.84 182.222 32.936 182.542 32.12C182.862 31.304 183.302 30.6 183.862 30.008C184.438 29.4 185.118 28.936 185.902 28.616C186.702 28.28 187.566 28.112 188.494 28.112C189.31 28.112 190.07 28.272 190.774 28.592C191.478 28.896 192.086 29.32 192.598 29.864C193.126 30.408 193.526 31.056 193.798 31.808C194.086 32.544 194.222 33.352 194.206 34.232L194.182 35.288H183.886L183.334 33.32H192.046L191.686 33.728V33.152C191.638 32.624 191.462 32.152 191.158 31.736C190.854 31.32 190.47 30.992 190.006 30.752C189.542 30.512 189.038 30.392 188.494 30.392C187.63 30.392 186.902 30.56 186.31 30.896C185.718 31.216 185.27 31.696 184.966 32.336C184.662 32.96 184.51 33.736 184.51 34.664C184.51 35.544 184.694 36.312 185.062 36.968C185.43 37.608 185.95 38.104 186.622 38.456C187.294 38.808 188.07 38.984 188.95 38.984C189.574 38.984 190.15 38.88 190.678 38.672C191.222 38.464 191.806 38.088 192.43 37.544L193.678 39.296C193.294 39.68 192.822 40.016 192.262 40.304C191.718 40.592 191.134 40.824 190.51 41C189.902 41.16 189.302 41.24 188.71 41.24ZM197.3 41V28.4H199.772V41H197.3ZM198.5 25.616C197.972 25.616 197.564 25.48 197.276 25.208C196.988 24.936 196.844 24.552 196.844 24.056C196.844 23.592 196.988 23.216 197.276 22.928C197.58 22.64 197.988 22.496 198.5 22.496C199.028 22.496 199.436 22.632 199.724 22.904C200.012 23.176 200.156 23.56 200.156 24.056C200.156 24.52 200.004 24.896 199.7 25.184C199.412 25.472 199.012 25.616 198.5 25.616ZM208.42 41.24C207.38 41.24 206.428 40.952 205.564 40.376C204.716 39.8 204.036 39.016 203.524 38.024C203.012 37.032 202.756 35.912 202.756 34.664C202.756 33.4 203.012 32.28 203.524 31.304C204.052 30.312 204.756 29.536 205.636 28.976C206.532 28.416 207.532 28.136 208.636 28.136C209.292 28.136 209.892 28.232 210.436 28.424C210.98 28.616 211.452 28.888 211.852 29.24C212.268 29.576 212.604 29.968 212.86 30.416C213.132 30.864 213.3 31.344 213.364 31.856L212.812 31.664V28.4H215.308V41H212.812V38L213.388 37.832C213.292 38.264 213.092 38.688 212.788 39.104C212.5 39.504 212.124 39.864 211.66 40.184C211.212 40.504 210.708 40.76 210.148 40.952C209.604 41.144 209.028 41.24 208.42 41.24ZM209.068 38.96C209.82 38.96 210.484 38.776 211.06 38.408C211.636 38.04 212.084 37.536 212.404 36.896C212.74 36.24 212.908 35.496 212.908 34.664C212.908 33.848 212.74 33.12 212.404 32.48C212.084 31.84 211.636 31.336 211.06 30.968C210.484 30.6 209.82 30.416 209.068 30.416C208.332 30.416 207.676 30.6 207.1 30.968C206.54 31.336 206.092 31.84 205.756 32.48C205.436 33.12 205.276 33.848 205.276 34.664C205.276 35.496 205.436 36.24 205.756 36.896C206.092 37.536 206.54 38.04 207.1 38.408C207.676 38.776 208.332 38.96 209.068 38.96Z" fill="#0094FF"/>
</svg>
